<svg xmlns="http://www.w3.org/2000/svg" width="215.837" height="44.236" viewBox="0 0 215.837 44.236">
  <g id="custom-card-dropdown-header" transform="translate(-210.07 -100.143)">
    <path id="custom-card-dropdown-header-2" data-name="custom-card-dropdown-header" d="M81.07,100.143c9.29,0,17.923,3.794,22.812,10.028l8.623,11.006.77.987,5.348,6.82c3.576,4.543,9.863,7.313,16.647,7.313h39.585a6.388,6.388,0,0,1,5.449,3.163,10.127,10.127,0,0,0,17.37,0,6.385,6.385,0,0,1,5.448-3.163h39.6c6.774,0,13.071-2.77,16.637-7.313l9.271-11.829.769-.978,4.7-6.006c4.888-6.234,13.522-10.028,22.811-10.028Z" transform="translate(129)" fill="#fff"/>
    <path id="dropdown" d="M188.987,137.931l3.487-3.49a.656.656,0,0,1,.928,0l0,0a.668.668,0,0,1,0,.934l-3.951,3.954a.658.658,0,0,1-.909.019l-3.979-3.971a.66.66,0,0,1,.931-.934Z" transform="translate(129)" fill="#26506e"/>
  </g>
</svg>
