<svg xmlns="http://www.w3.org/2000/svg" width="225.476" height="44.743" viewBox="0 0 225.476 44.743">
  <g id="logo" transform="translate(0.001)">
    <path id="Path_65" data-name="Path 65" d="M55.357,44.665a17.186,17.186,0,0,1-5.552-.964,15.306,15.306,0,0,1-3.72-1.78,1.389,1.389,0,0,1-.557-1.5l.017-.06a1.4,1.4,0,0,1,2.084-.836,16.629,16.629,0,0,0,2.93,1.4,14.571,14.571,0,0,0,5.033.906,8.578,8.578,0,0,0,5.147-1.388,4.31,4.31,0,0,0,1.91-3.654A4.119,4.119,0,0,0,61.318,33.7,18.163,18.163,0,0,0,56.4,30.84a17.43,17.43,0,0,1-5.639-3.6,6.235,6.235,0,0,1-1.706-4.39,6.793,6.793,0,0,1,2.69-5.553,10.8,10.8,0,0,1,6.97-2.153,15.989,15.989,0,0,1,4.771.765,17.763,17.763,0,0,1,3.33,1.4,1.394,1.394,0,0,1-1.335,2.448,14.3,14.3,0,0,0-6.824-1.777,7.675,7.675,0,0,0-4.6,1.274,3.911,3.911,0,0,0-1.764,3.315A3.831,3.831,0,0,0,53.508,25.4a15.076,15.076,0,0,0,4.28,2.55,21.463,21.463,0,0,1,6.419,3.938A6.368,6.368,0,0,1,66.059,36.5a7.1,7.1,0,0,1-2.921,5.921,12.466,12.466,0,0,1-7.779,2.238Z" fill="#26506f"/>
    <path id="Path_66" data-name="Path 66" d="M118.158,16.052h-1.007a1.191,1.191,0,0,0-1.165.94l-1.007,4.567a.251.251,0,0,1-.477.04,10.45,10.45,0,0,0-3.749-4.528,11.475,11.475,0,0,0-6.6-1.919,14.138,14.138,0,0,0-6.041,1.324,16.656,16.656,0,0,0-5.087,3.68,17.438,17.438,0,0,0-3.471,5.415,17.057,17.057,0,0,0-1.246,6.513,13.835,13.835,0,0,0,1.51,6.554,10.927,10.927,0,0,0,4.213,4.448,12.168,12.168,0,0,0,6.254,1.589,13.974,13.974,0,0,0,6.385-1.536,12.812,12.812,0,0,0,4.266-3.376.252.252,0,0,1,.437.212l-.516,2.859a.793.793,0,0,0,.781.927h1.444a1.046,1.046,0,0,0,1.02-.834l5.035-25.67a1.012,1.012,0,0,0-.981-1.2M112,34.838a13.6,13.6,0,0,1-4.571,5.018,11.338,11.338,0,0,1-6.332,1.866v.013a8.985,8.985,0,0,1-6.77-2.647,9.776,9.776,0,0,1-2.544-7.11,14.282,14.282,0,0,1,1.709-6.937A13.785,13.785,0,0,1,98.061,20a11.166,11.166,0,0,1,6.332-1.906,8.933,8.933,0,0,1,6.8,2.674,9.949,9.949,0,0,1,2.517,7.136A14.282,14.282,0,0,1,112,34.838" fill="#26506f"/>
    <path id="Path_67" data-name="Path 67" d="M121.03,42.706l5.108-25.757a1.117,1.117,0,0,1,1.1-.9h.853a1.133,1.133,0,0,1,1.115,1.332l-.432,2.4a.248.248,0,0,0,.441.2,12.55,12.55,0,0,1,3.846-3.329,11.619,11.619,0,0,1,5.756-1.5,9.242,9.242,0,0,1,6.71,2.41,8.614,8.614,0,0,1,2.485,6.487,11.848,11.848,0,0,1-.086,1.446c-.059.472-.126.974-.2,1.5l-3.127,15.9a1.078,1.078,0,0,1-1.058.872h-1.457a.877.877,0,0,1-.86-1.046L144.247,27.5a15.563,15.563,0,0,0,.347-3.117q0-5.35-4.771-6.148a11.512,11.512,0,0,0-9.359,3.32,14.842,14.842,0,0,0-3.279,7.022L124.34,42.943a1.02,1.02,0,0,1-1,.824h-1.442a.882.882,0,0,1-.865-1.054Z" fill="#26506f"/>
    <path id="Path_68" data-name="Path 68" d="M5.536,16.171H2.925a.523.523,0,0,0-.5.41L.01,28.748a.517.517,0,0,0,.5.609H3.15a.522.522,0,0,0,.5-.411L6.038,16.78a.5.5,0,0,0-.5-.609m1.35-6.355A2.03,2.03,0,0,0,5.443,9.3a2.37,2.37,0,0,0-1.7.635,2.167,2.167,0,0,0-.662,1.615,1.881,1.881,0,0,0,.543,1.39,1.983,1.983,0,0,0,1.444.53,2.278,2.278,0,0,0,1.7-.662,2.208,2.208,0,0,0,.662-1.615,1.833,1.833,0,0,0-.543-1.377" fill="#26506f"/>
    <path id="Path_69" data-name="Path 69" d="M7.021,28.844,9.471,16.5a.423.423,0,0,1,.414-.339h2.647a.423.423,0,0,1,.417.492l-.1.619a.2.2,0,0,0,.349.16,5.006,5.006,0,0,1,3.751-1.688,3.976,3.976,0,0,1,2.988,1.141,4.221,4.221,0,0,1,1.11,3.083,8.869,8.869,0,0,1-.158,1.6L19.4,29a.423.423,0,0,1-.412.339H16.191a.421.421,0,0,1-.414-.5l1.354-6.856a6.106,6.106,0,0,0,.107-1.036,1.783,1.783,0,0,0-2.009-2.022,2.743,2.743,0,0,0-2.062.881A4.833,4.833,0,0,0,12,22.269L10.668,29a.423.423,0,0,1-.414.339H7.438a.423.423,0,0,1-.415-.5Z" fill="#26506f"/>
    <path id="Path_70" data-name="Path 70" d="M76.959,33.918l3.006-14.9h7.456a.691.691,0,0,0,.676-.557l.312-1.625a.594.594,0,0,0-.586-.707H80.546l1.524-7.72a.891.891,0,0,0-.875-1.063H79.7a1.015,1.015,0,0,0-1,.816l-1.573,7.967H71.378a.885.885,0,0,0-.868.712l-.3,1.494a.574.574,0,0,0,.563.686h5.777L73.6,34.034a16.875,16.875,0,0,0-.347,3.286,7.2,7.2,0,0,0,2.024,5.524,8.307,8.307,0,0,0,5.9,1.9c.407,0,.817-.02,1.234-.061a.87.87,0,0,0,.773-.7l.266-1.388a.673.673,0,0,0-.729-.8,10.745,10.745,0,0,1-1.137.061q-4.918,0-4.917-4.817a13.543,13.543,0,0,1,.087-1.472c.056-.531.124-1.078.2-1.645Z" fill="#26506f"/>
    <path id="Path_71" data-name="Path 71" d="M180.425,21.215a11.1,11.1,0,0,0-4.187-4.409,12.031,12.031,0,0,0-6.226-1.588,13.61,13.61,0,0,0-6.306,1.535,14.116,14.116,0,0,0-4.134,3.151.328.328,0,0,1-.57-.278l2.5-12.484a.829.829,0,0,0-.821-.993h-1.51a.967.967,0,0,0-.954.781L151.093,42.7a.941.941,0,0,0,.928,1.125h1.364a.867.867,0,0,0,.861-.7l.954-4.673a.283.283,0,0,1,.53-.066,10.8,10.8,0,0,0,3.789,4.448,11.375,11.375,0,0,0,6.558,1.907,14.328,14.328,0,0,0,6.107-1.338,16.394,16.394,0,0,0,5.061-3.68,17.887,17.887,0,0,0,3.445-5.415,17.281,17.281,0,0,0,1.245-6.513,13.942,13.942,0,0,0-1.51-6.58M176.808,34.9a13.6,13.6,0,0,1-4.571,5.018,11.447,11.447,0,0,1-6.385,1.866,8.923,8.923,0,0,1-6.77-2.661,9.814,9.814,0,0,1-2.544-7.083,14.282,14.282,0,0,1,1.709-6.937,13.629,13.629,0,0,1,4.6-5.044,11.2,11.2,0,0,1,6.307-1.893,8.953,8.953,0,0,1,6.822,2.661,9.9,9.9,0,0,1,2.544,7.136,14.282,14.282,0,0,1-1.709,6.937" fill="#26506f"/>
    <path id="Path_72" data-name="Path 72" d="M194.966,44.733a8.9,8.9,0,0,1-6.507-2.351,8.522,8.522,0,0,1-2.4-6.377,13.757,13.757,0,0,1,.087-1.557c.058-.511.124-1.029.2-1.559l3.117-15.86a1.132,1.132,0,0,1,1.112-.913h1.156a1.087,1.087,0,0,1,1.066,1.3L189.761,32.6c-.078.531-.146,1.039-.2,1.531a12.551,12.551,0,0,0-.087,1.472q0,6.175,6.247,6.178a9.959,9.959,0,0,0,7.115-2.8,13.759,13.759,0,0,0,3.875-7.621l2.751-14.218a1.265,1.265,0,0,1,1.243-1.024h1.083a1.053,1.053,0,0,1,1.035,1.259l-5.007,25.253a1.487,1.487,0,0,1-1.459,1.2h-.669a1.074,1.074,0,0,1-1.056-1.269l.632-3.434a12.859,12.859,0,0,1-4.512,4.166,11.923,11.923,0,0,1-5.784,1.445Z" fill="#26506f"/>
    <path id="Path_73" data-name="Path 73" d="M222.187,6.931l-7.066,35.712a.991.991,0,0,0,.974,1.184h1.081a1.3,1.3,0,0,0,1.272-1.046L225.456,7.35a1.012,1.012,0,0,0-.993-1.208h-1.316a.982.982,0,0,0-.962.789Z" fill="#26506f"/>
    <path id="Path_74" data-name="Path 74" d="M41.195,2.354H37.3a.484.484,0,0,1-.446-.676l.1-.225h.005a2.544,2.544,0,0,1,4.7.254.487.487,0,0,1-.458.647" fill="#26506f"/>
    <path id="Path_75" data-name="Path 75" d="M41.8,5.26V7.251a.486.486,0,0,1-.485.484H34.96a.484.484,0,0,1-.444-.678l.865-1.991a.485.485,0,0,1,.444-.29h5.489a.486.486,0,0,1,.484.484Z" fill="#26506f"/>
    <path id="Path_76" data-name="Path 76" d="M33.486,10.156h7.825a.486.486,0,0,1,.485.484v1.989a.486.486,0,0,1-.485.484H32.623a.484.484,0,0,1-.443-.678l.863-1.988a.484.484,0,0,1,.443-.291" fill="#26506f"/>
    <path id="Path_77" data-name="Path 77" d="M31.15,15.535H41.311a.486.486,0,0,1,.485.484V18.01a.486.486,0,0,1-.485.484H30.285a.484.484,0,0,1-.444-.678l.866-1.99A.484.484,0,0,1,31.15,15.535Z" fill="#26506f"/>
    <path id="Path_78" data-name="Path 78" d="M28.811,20.916h12.5a.486.486,0,0,1,.484.484v5.749a.484.484,0,0,1-.661.451L28.307,22.606a.484.484,0,0,1-.269-.644l.327-.755A.486.486,0,0,1,28.811,20.916Z" fill="#26506f"/>
    <path id="Path_79" data-name="Path 79" d="M41.774,38.986c0,.724-.024,1.291-.065,1.746a.191.191,0,0,1-.005.053,4.3,4.3,0,0,1-6.495,3.2c.01.007.02.015.032.022-.039-.024-.083-.051-.124-.078a.58.58,0,0,0-.058-.038c-.07-.049-.143-.1-.221-.158a10.036,10.036,0,0,1-1.1-.944l-.123-.124c-.4-.4-.851-.9-1.353-1.518a1.271,1.271,0,0,0-.744.128,7.251,7.251,0,0,1-1.182.371c-.027.007-.054.012-.08.017a7.707,7.707,0,0,1-1.612.167c-.041,0-.085,0-.126,0a6.034,6.034,0,0,1-5.726-6.025c0-.1,0-.191.007-.285.005-.119.015-.238.027-.356a9.245,9.245,0,0,1,.548-2.466c.806-2.1,1.87-4.1,2.881-6.117a2.042,2.042,0,0,1,.8-.935l0,0a.125.125,0,0,1,.017-.012.047.047,0,0,1,.019-.012.663.663,0,0,0,.063-.027c.1-.046.243-.1.364-.14a5.109,5.109,0,0,1,3.591.455c1.67.734,4.612,1.753,8.756,3.448a3.522,3.522,0,0,1,1.473,1.1,1.954,1.954,0,0,1,.192.29,6.258,6.258,0,0,1,.242,2.422c0,.3,0,.484,0,.484C41.75,35.344,41.784,36.76,41.774,38.986Z" fill="#26506f"/>
    <path id="Path_80" data-name="Path 80" d="M41.774,38.986c0,.724-.024,1.291-.065,1.746a.191.191,0,0,1-.005.053,4.3,4.3,0,0,1-6.495,3.2l-.092-.056a.58.58,0,0,0-.058-.038c-.07-.049-.143-.1-.221-.158a10.036,10.036,0,0,1-1.1-.944l-.123-.124c-.4-.4-.851-.9-1.353-1.518-.058-.073-.118-.15-.181-.228a23.744,23.744,0,0,1-3.635-7.749c-.5-1.63-1.309-6.606-1.435-7.4a.139.139,0,0,1,.041-.129l0,0a.125.125,0,0,1,.017-.012.047.047,0,0,1,.019-.012.663.663,0,0,0,.063-.027c.1-.046.243-.1.364-.14a5.109,5.109,0,0,1,3.591.455c1.67.734,4.612,1.753,8.756,3.448a3.522,3.522,0,0,1,1.473,1.1,1.954,1.954,0,0,1,.192.29,6.258,6.258,0,0,1,.242,2.422c.005.3,0,.484,0,.484C41.75,35.344,41.784,36.76,41.774,38.986Z" fill="#12ab7b"/>
  </g>
</svg>
