<svg xmlns="http://www.w3.org/2000/svg" width="21.05" height="21.051" viewBox="0 0 21.05 21.051">
  <path id="help-icon" d="M75.181,658.569a10.525,10.525,0,1,1-10.525-10.525,10.526,10.526,0,0,1,10.525,10.525Zm-10.243-7.045a5.5,5.5,0,0,0-4.947,2.709.509.509,0,0,0,.115.689l1.47,1.117a.508.508,0,0,0,.707-.091c.758-.962,1.278-1.52,2.433-1.52.867,0,1.939.558,1.939,1.4,0,.636-.525.962-1.378,1.442-1,.56-2.32,1.257-2.32,3v.17a.509.509,0,0,0,.509.509h2.377a.509.509,0,0,0,.509-.509v-.057c0-1.208,3.53-1.259,3.53-4.527,0-2.464-2.552-4.331-4.944-4.331m-.282,10.525A1.952,1.952,0,1,0,66.608,664a1.952,1.952,0,0,0-1.952-1.952" transform="translate(-54.131 -648.044)" fill="#fff"/>
</svg>
