<svg xmlns="http://www.w3.org/2000/svg" width="10.438" height="10.438" viewBox="0 0 10.438 10.438">
  <g id="profile-patient-edit" transform="translate(-1640.111 -94.698)">
    <path id="profile-patient-delete" d="M1645.329,104.85a4.933,4.933,0,1,1,4.933-4.933,4.939,4.939,0,0,1-4.933,4.933" fill="#fff"/>
    <path id="profile-patient-edit-2" data-name="profile-patient-edit" d="M1645.33,95.269a4.648,4.648,0,1,1-4.648,4.648,4.648,4.648,0,0,1,4.648-4.648m0-.571a5.219,5.219,0,1,0,5.219,5.219,5.225,5.225,0,0,0-5.219-5.219" fill="#c8c8c8"/>
    <path id="Path_2476" data-name="Path 2476" d="M1647.571,102.158h0a.519.519,0,0,1-.736,0l-1.506-1.5-1.505,1.5a.52.52,0,1,1-.736-.736l1.505-1.5-1.505-1.506a.52.52,0,0,1,.736-.736l1.505,1.506,1.506-1.506a.521.521,0,0,1,.736,0h0a.52.52,0,0,1,0,.735l-1.505,1.506,1.505,1.5a.521.521,0,0,1,0,.736" fill="red"/>
  </g>
</svg>
