<svg xmlns="http://www.w3.org/2000/svg" width="19.495" height="19.507" viewBox="0 0 19.495 19.507">
  <path id="settings-icon" d="M72.795,447.831a2.508,2.508,0,0,1,1.609-2.34,9.935,9.935,0,0,0-1.2-2.9,2.544,2.544,0,0,1-1.021.218,2.5,2.5,0,0,1-2.289-3.524,9.9,9.9,0,0,0-2.893-1.2,2.507,2.507,0,0,1-4.685,0,9.983,9.983,0,0,0-2.9,1.2,2.5,2.5,0,0,1-2.29,3.524,2.46,2.46,0,0,1-1.024-.218,10.15,10.15,0,0,0-1.194,2.9,2.508,2.508,0,0,1,.005,4.685,9.91,9.91,0,0,0,1.2,2.9,2.5,2.5,0,0,1,3.307,3.307,9.976,9.976,0,0,0,2.9,1.2,2.5,2.5,0,0,1,4.671,0,9.921,9.921,0,0,0,2.9-1.2,2.507,2.507,0,0,1,3.307-3.307,10,10,0,0,0,1.2-2.9,2.522,2.522,0,0,1-1.609-2.349M64.7,451.888a4.062,4.062,0,1,1,4.062-4.062,4.062,4.062,0,0,1-4.062,4.062Z" transform="translate(-54.909 -438.083)" fill="#fff"/>
</svg>
