<svg xmlns="http://www.w3.org/2000/svg" width="17.121" height="14.187" viewBox="0 0 17.121 14.187">
  <g id="table-edit" transform="translate(-540.311 -38.619)">
    <path id="Path_730" data-name="Path 730" d="M551.718,51.756a.22.22,0,0,1-.217.216h-10.14a.215.215,0,0,1-.217-.216V39.88a.216.216,0,0,1,.217-.217H551.5a.221.221,0,0,1,.217.217v1.308l.833-1.316a1.055,1.055,0,0,0-1.05-1.042h-10.14a1.051,1.051,0,0,0-1.05,1.05V51.756a1.051,1.051,0,0,0,1.05,1.05H551.5a1.056,1.056,0,0,0,1.05-1.05V49.771l-.833.6Z" fill="#26506e"/>
    <rect id="Rectangle_746" data-name="Rectangle 746" width="6.125" height="0.833" transform="translate(543.366 41.431)" fill="#26506e"/>
    <rect id="Rectangle_747" data-name="Rectangle 747" width="6.125" height="0.833" transform="translate(543.366 43.519)" fill="#26506e"/>
    <rect id="Rectangle_748" data-name="Rectangle 748" width="3.782" height="0.833" transform="translate(543.367 45.606)" fill="#26506e"/>
    <path id="Path_731" data-name="Path 731" d="M557.237,40.237l-2.467-1.554a.416.416,0,0,0-.574.13l-5.1,8.1a.408.408,0,0,0-.05.131c0,.006-.006.01-.007.016l-.712,3.866a.413.413,0,0,0,.188.428.391.391,0,0,0,.191.063.414.414,0,0,0,.276-.078l3.179-2.313a.37.37,0,0,0,.062-.074c.013-.016.034-.022.045-.041l5.1-8.1a.416.416,0,0,0-.131-.575m-.8.483-.338.536-1.762-1.11.338-.536Zm-2.544.131,1.763,1.11-3.877,6.155-1.762-1.109Zm-4.564,9.2.412-2.235,1.426.9Z" fill="#26506e"/>
  </g>
</svg>
